<?xml version="1.0" encoding="UTF-8" standalone="no"?>
<svg
   xmlns:dc="http://purl.org/dc/elements/1.1/"
   xmlns:cc="http://creativecommons.org/ns#"
   xmlns:rdf="http://www.w3.org/1999/02/22-rdf-syntax-ns#"
   xmlns:svg="http://www.w3.org/2000/svg"
   xmlns="http://www.w3.org/2000/svg"
   xmlns:sodipodi="http://sodipodi.sourceforge.net/DTD/sodipodi-0.dtd"
   xmlns:inkscape="http://www.inkscape.org/namespaces/inkscape"
   width="1300"
   height="1000"
   version="1.1"
   id="svg3771"
   sodipodi:docname="method-draw-image9.svg"
   inkscape:version="0.92.4 (5da689c313, 2019-01-14)">
  <defs
     id="defs3775" />
  <sodipodi:namedview
     pagecolor="#ffffff"
     bordercolor="#666666"
     borderopacity="1"
     objecttolerance="10"
     gridtolerance="10"
     guidetolerance="10"
     inkscape:pageopacity="0"
     inkscape:pageshadow="2"
     inkscape:window-width="1920"
     inkscape:window-height="1137"
     id="namedview3773"
     showgrid="false"
     inkscape:zoom="0.808"
     inkscape:cx="653.71287"
     inkscape:cy="513.38654"
     inkscape:window-x="1912"
     inkscape:window-y="-8"
     inkscape:window-maximized="1"
     inkscape:current-layer="g3769" />
  <title
     id="title3747">rtcloud</title>
  <g
     id="g3752">
    <title
       id="title3749">background</title>
    <rect
       x="-1"
       y="-1"
       width="1302"
       height="1002"
       id="canvas_background"
       fill="none" />
  </g>
  <g
     id="g3769">
    <title
       id="title3754">Layer 1</title>
    <path
       d="m1163.07143,447.76665c-20.5,-16.7 -28.8,-34.1 -32.2,-60.1c-11.8,-89 -63.20001,-151 -145.6,-182.4c-85.70001,-32.5 -169.4,-23.4 -241.30001,37.8c-15.7,13.3 -30.1,20.5 -47.9,22.3c-34.29999,-42 -86.5,-68.7 -144.8,-68.7c-103.3,0 -187.1,83.8 -187.1,187.1c0,45.7 16.3,87.3 43.3,119.7c-30.7,52.3 -37.1,113.5 -15.8,174.7c30,86.6 107.4,140.1 203.5,140.2c71.7,0.1 143.3,0 214.9,0c73,0 146,0.3 218.9,0c90,-0.4 167.90001,-55.1 197.6,-138.3c29.9,-83.8 6,-175.7 -63.5,-232.3l0.00001,0zm-776.1,-64c0,-90.7 73.6,-164.3 164.3,-164.3c51.3,0 97.1,23.5 127.2,60.4c7.1,8.7 13.4,18.2 18.8,28.5c7.8,15.2 13.3,32.1 16.1,49.7c1.3,8.3 2.1,17 2.1,25.7c0,90.7 -73.4,164.2 -164.2,164.2c-29,0 -56.2,-7.4 -79.8,-20.7c-9.9,-5.5 -19.1,-12 -27.5,-19.2c-6.9,-5.9 -13.2,-12.3 -19.1,-19.2c-23.6,-28.4 -37.9,-65.1 -37.9,-105.1zm814.1,279c-23.90001,75.8 -91.90001,125.5 -173.6,125.9c-71.5,0.3 -143.2,0 -214.7,0c-72.9,0 -145.7,0.1 -218.7,0c-84.4,-0.3 -153.1,-49.5 -176.9,-126.6c-14.9,-48.2 -10,-95.6 12,-136.7c9.6,8.3 20.1,15.7 31.3,21.9c-14.6,28.8 -18.2,61.6 -9.3,96.2c17,66.4 71.7,107 145.1,107c140.8,0.1 281.7,0.1 422.5,0c76.3,0 132.4,-40.6 149,-107.3c16.6,-66.9 -14.6,-129.3 -80.8,-165.8c-9.5,-5.2 -19.8,-19.5 -19.5,-29.3c2.4,-89.3 -37.7,-156.6 -111.1,-182.2c-82,-28.4 -155.2,-1.8 -208.8,76c-2.8,4 -6.2,7.7 -10.6,13.2l-0.9,-0.4c-3.1,-20.1 -9.5,-39.2 -18.3,-56.6c10.9,-2.1 20.2,-8 30.9,-19.1c64,-65.5 143.6,-77.7 226.1,-46c78.8,30.3 125.2,91.5 128.4,178.5c0.9,23.5 9,36.1 27.8,48.9c67.1,46.2 93.9,126.3 70.1,202.4z"
       id="svg_1" />
    <g
       id="svg_8"
       stroke="null">
      <g
         id="svg_7"
         transform="matrix(0.804131753570568,0,0,0.795612545233154,-709.1115151546853,-442.59329699198213) "
         stroke="null">
        <title
           id="title3764">Layer 1</title>
        <path
           id="svg_5"
           transform="rotate(-90 1567.6678466796877,1039.7449951171875) "
           d="m1567.45506,1211.745c95.33088,0 173.21279,-77.00861 173.21279,-172.21157c0,-94.35671 -77.88192,-171.78845 -173.21279,-171.78845c-95.75646,0 -172.78721,77.43174 -172.78721,171.78845c0,95.20296 77.03075,172.21157 172.78721,172.21157zm0,-305.91884c74.47725,0 134.91021,60.50677 134.91021,134.55352s-60.43296,133.70726 -134.91021,133.70726s-134.91021,-59.66052 -134.91021,-133.70726s60.43296,-134.55352 134.91021,-134.55352zm51.07011,113.3973l-54.0492,0c-5.95818,0 -10.63961,2.11563 -14.04428,6.34687l-60.85855,66.00738c-16.59779,17.3481 10.63961,42.73555 27.66298,25.81058l55.32595,-60.08364l45.9631,0c26.38623,0 23.40714,-38.08119 0,-38.08119zm-61.70972,121.43667c0,5.50061 5.10701,10.15498 10.21403,10.15498s10.21402,-4.65437 10.21402,-10.15498s-4.68143,-10.15498 -10.21402,-10.15498s-10.21403,5.07749 -10.21403,10.15498zm71.07257,-27.50308c0,5.50062 4.68143,10.15498 9.78844,10.15498s10.21402,-4.65436 10.21402,-10.15498s-4.68142,-10.15498 -10.21402,-10.15498s-9.78844,5.07749 -9.78844,10.15498zm31.06766,-72.35425c0,5.07749 5.10701,10.15498 10.21402,10.15498s10.21402,-5.07749 10.21402,-10.15498s-4.68143,-10.15498 -10.21402,-10.15498s-10.21402,4.65437 -10.21402,10.15498zm-28.08857,-71.08487c0,5.50061 4.68143,10.15498 10.21403,10.15498s10.21402,-4.65437 10.21402,-10.15498s-5.10701,-9.73186 -10.21402,-9.73186s-10.21403,4.65436 -10.21403,9.73186zm-74.47724,-30.46495c0,5.07749 4.68143,10.15498 10.21402,10.15498s10.21402,-5.07749 10.21402,-10.15498s-5.10701,-10.15498 -10.21402,-10.15498s-10.21402,4.65436 -10.21402,10.15498zm-68.94465,27.50308c0,5.07749 4.68143,10.15498 9.78844,10.15498s10.21402,-5.07749 10.21402,-10.15498s-4.68143,-10.15499 -10.21402,-10.15499s-9.78844,4.65437 -9.78844,10.15499zm-31.91882,74.04674c0,5.07749 4.68143,10.15498 9.78844,10.15498s10.21402,-5.07749 10.21402,-10.15498s-4.68143,-10.15498 -10.21402,-10.15498s-9.78844,4.65437 -9.78844,10.15498z"
           stroke="null"
		   style="fill:#ffffff;" />
      </g>
    </g>
    <path
       style="fill:#ffffff;stroke-width:1.23762381;stroke:#484e59"
       d="m 563.61386,815.70647 c -35.14365,-4.82053 -66.55771,-16.61515 -94.30002,-35.40553 -16.22132,-10.987 -41.47648,-36.44528 -52.11687,-52.53603 -9.98004,-15.09213 -21.54259,-38.99868 -26.66959,-55.14163 -16.93764,-53.33019 -13.31393,-106.95298 10.51073,-155.53542 l 6.85403,-13.97651 -4.92164,-6.44428 c -15.96998,-20.91078 -29.00538,-49.35134 -34.22182,-74.66499 -14.67195,-71.19807 13.23872,-144.5346 71.48285,-187.82443 22.73893,-16.90066 46.29117,-27.3191 76.35263,-33.77492 16.01345,-3.43895 55.63333,-3.10266 71.78218,0.60928 18.93788,4.35303 31.86892,8.89775 46.69008,16.40965 18.80414,9.5306 31.77416,19.01031 47.85842,34.97938 l 13.51266,13.4159 5.66329,-0.84926 c 14.2013,-2.12962 26.2168,-8.63512 47.98417,-25.97988 65.76683,-52.40455 141.2343,-64.90298 223.81118,-37.06617 88.59886,29.86682 141.92736,92.28706 155.90496,182.48431 2.8961,18.6884 5.1746,26.60632 10.7398,37.32203 5.2781,10.16278 11.2931,16.89415 31.7004,35.476 34.674,31.57238 57.3014,74.10825 64.1345,120.56243 2.7878,18.95254 1.8536,54.42348 -1.8914,71.81807 -8.6392,40.12682 -26.7381,74.96703 -53.5115,103.00916 -33.2858,34.8631 -75.149,56.2443 -123.5372,63.09537 -11.1527,1.57907 -46.2436,1.82505 -247.52471,1.73506 -185.41045,-0.0829 -236.99214,-0.44262 -246.28713,-1.71759 z m 498.76234,-29.49809 c 73.9115,-15.13011 127.3624,-67.47683 143.782,-140.81172 2.4861,-11.10359 2.8765,-16.20645 2.8765,-37.59963 0,-27.29684 -1.3485,-36.57517 -8.2739,-56.93069 -12.5453,-36.87352 -33.8895,-64.72771 -70.4357,-91.91865 -20.9233,-15.56726 -24.6594,-23.00926 -27.0767,-53.93404 -4.1978,-53.70349 -20.7115,-92.14376 -53.8074,-125.25166 -27.452,-27.4619 -65.37203,-47.60592 -108.9707,-57.88778 -18.17956,-4.28728 -31.33841,-5.78657 -50.71011,-5.77781 -52.11536,0.0236 -94.65744,18.14966 -137.79419,58.71053 -15.20741,14.29931 -21.7434,18.99259 -30.1631,21.65911 l -4.55851,1.44368 3.4792,7.75446 c 5.21358,11.62007 9.8559,25.73826 12.60497,38.33405 1.35161,6.19287 2.70965,11.51192 3.01784,11.82012 0.64393,0.64394 -0.23258,1.72232 16.24917,-19.99152 28.23896,-37.20334 58.44495,-60.84633 91.96058,-71.97985 20.4556,-6.79512 33.13016,-8.56005 55.69137,-7.75497 66.06543,2.35748 120.91908,36.57824 147.32868,91.9119 12.5721,26.34098 19.6912,61.02713 19.7378,96.16668 0.021,15.89284 6.3156,25.44684 23.9245,36.31299 17.137,10.57495 27.5896,18.85732 39.8885,31.60664 25.3092,26.23605 38.2457,55.17858 39.7893,89.0194 1.836,40.25196 -11.3698,76.67154 -37.7297,104.05256 -22.2429,23.10454 -50.8824,37.28968 -85.9601,42.57598 -10.3443,1.55892 -45.1305,1.76288 -245.04952,1.43682 -232.96171,-0.37996 -232.99526,-0.38038 -243.51361,-3.01513 -31.03753,-7.7746 -52.29828,-19.40992 -71.35844,-39.05216 -5.4447,-5.61097 -12.14727,-13.54333 -14.89461,-17.62749 -25.46792,-37.86019 -32.3295,-88.77931 -17.24007,-127.93687 2.26292,-5.87235 4.49947,-11.55788 4.9701,-12.63453 0.64044,-1.4651 -1.05778,-3.1386 -6.75077,-6.65251 -4.18355,-2.58224 -11.18136,-7.43499 -15.55069,-10.7839 -4.36932,-3.3489 -8.50159,-5.74444 -9.18283,-5.32342 -1.92435,1.18932 -8.19699,15.75704 -12.30003,28.56589 -13.83291,43.18349 -9.82344,91.7189 11.09779,134.34099 27.13624,55.28372 77.6056,90.28336 142.34816,98.71602 4.42451,0.57629 114.69678,0.94479 245.04951,0.81888 219.80281,-0.2123 237.76851,-0.38521 247.52471,-2.38237 z M 579.8709,545.86767 c 21.42862,-3.52725 43.89485,-12.53161 63.56969,-25.47841 12.45755,-8.19755 35.45066,-30.96759 43.5943,-43.17136 29.3513,-43.98487 36.57797,-96.72008 20.06101,-146.39135 -7.73323,-23.25608 -19.94365,-43.11403 -37.88664,-61.61552 -24.07651,-24.82592 -51.30067,-39.71175 -86.17905,-47.12161 -17.76666,-3.7745 -45.81851,-3.7745 -63.58517,0 -34.87838,7.40986 -62.10254,22.29569 -86.17905,47.12161 -22.26811,22.96122 -36.79335,50.15225 -43.68577,81.77907 -3.21058,14.73218 -3.24268,50.72298 -0.0582,65.30715 7.23707,33.14457 21.24633,59.07255 44.71605,82.75938 39.21634,39.57912 90.13552,55.94618 145.63286,46.81104 z"
       id="path3785"
       inkscape:connector-curvature="0" />
  </g>
</svg>
