<svg width="570" height="384.99999999999994" xmlns="http://www.w3.org/2000/svg">
 <metadata/>

 <g>
  <title>background</title>
  <rect fill="none" id="canvas_background" height="387" width="572" y="-1" x="-1"/>
 </g>
 <g>
  <title>Layer 1</title>
  <g stroke="null" id="svg_1">
   <!--
<path id="lamp" d="M209-110l0 104 282 0 0-104q-70-42-142-40-70-2-140 40z m276 164l-270 0q0 72-36 140t-78 113-74 112-26 139q8 120 94 206t254 86q170 0 255-86t95-206q4-60-16-113t-52-96-65-85-57-96-24-114z m-378 496q-4-4 0-20t2-20 5-19 6-18 8-18 11-19 13-19 14-19 15-21 16-23q88-122 112-212l82 0q24 94 112 212 4 6 25 35t25 36 17 29 16 33 6 28 1 35q-16 196-244 196-226 0-242-196z" horiz-adv-x="700" />

<path id="lightbulb-1" d="M0 506q0 143 101 243t243 101 243-101 101-243q0-54-30-121t-71-140-56-116q-15-39-31-94t-24-82-27-53-42-39-63-11-64 11-41 39-26 53-25 82-32 94q-13 43-55 117t-72 139-29 121z m63 0q0-64 82-213 37-64 52-99l293 0q16 35 53 99 82 151 82 213 0 117-82 199t-199 82-199-82-82-199z m93 0q0 78 55 133t133 55q15 0 15-16t-15-16q-65 0-111-45t-45-111q0-15-16-15t-16 15z m67-375q11-33 19-60l213 27q2 12 10 33l-242 0z m29-90q10-35 18-60l154 19q6 16 12 38 2 5 4 15t3 12z m29-89q12-26 25-33t38-7q29 0 43 10t27 45z" horiz-adv-x="687" />

<path id="lightbulb-2" d="M1 309q-2 12 7 22t22 11l90 16q14 2 26-5t13-20-7-23-24-13l-88-13q-14-2-25 5t-14 20z m2 251q-6 13 0 24t19 16 26-4l82-35q14-6 19-18t0-23-18-16-26 0l-82 39q-14 4-20 17z m160 207q2 13 14 21 10 5 22 2t21-16l49-76q7-12 5-26t-11-19-23-3-20 15l-51 76q-8 13-6 26z m57-241q17 39 49 66t75 41 94 14l4 0q51 0 94-14t75-41 50-66q43-104-15-227-22-43-47-91-14-26-25-74t-16-61q-4-12-16-14l-203 0q-12 2-18 14-29 111-39 135-25 48-47 91-58 131-15 227z m99-623q0 8 5 12t13 5l209 0q6 0 11-5t5-12l0-35q0-8-5-13t-11-5l-209 0q-18 0-18 18l0 35z m0 68l0 35q0 18 18 18l209 0q6 0 11-5t5-13l0-35q0-8-5-13t-11-4l-209 0q-8 0-13 4t-5 13z m94 754l0 90q0 16 8 25t21 10q12 0 21-10t9-25l0-90q0-14-9-23t-21-10q-13 0-21 10t-8 23z m193-53q-1 14 6 26l49 76q10 12 22 16t23-2q10-8 12-21t-6-26l-49-76q-10-12-21-15t-23 3-13 19z m118-339q2 13 12 20t25 5l90-16q13-2 22-11t7-22q-2-14-13-20t-26-5l-90 13q-14 2-22 13t-5 23z m8 187q-4 12 1 23t18 18l84 35q12 8 24 4t19-16 0-24-20-17l-82-39q-13-4-26 0t-18 16z" horiz-adv-x="881" />
-->
   <path fill="#0076A3" transform="rotate(180 285.990234375,192.39660644531253) " stroke="null" d="m5.085685,174.132004q0,53.296514 35.992322,92.220934t87.168904,38.325583q9.56046,0 17.433781,-1.197674q24.182341,36.529071 61.299423,56.2907q38.241842,19.761629 79.295584,19.761629t78.733204,-19.761629q37.117082,-19.761629 61.861803,-56.2907q7.31094,1.197674 17.433781,1.197674q50.614202,0 86.606524,-38.325583t35.992322,-92.220934t-35.992322,-92.819772t-86.606524,-38.325583q-23.619961,0 -43.865642,8.383721q-49.489442,-46.110467 -114.163146,-46.110467t-114.163146,46.110467q-20.808061,-8.383721 -43.865642,-8.383721q-50.614202,0 -87.168904,38.325583t-35.992322,92.819772zm35.429942,0q0,-38.92442 25.307101,-66.470933t62.424183,-27.546513q26.994241,0 50.051822,17.965117q43.303262,-55.093026 107.976965,-55.093026t107.414585,55.093026q23.057581,-17.965117 50.614202,-17.965117q35.992322,0 61.861803,27.546513t25.869481,66.470933t-25.869481,65.872096t-61.861803,27.546513q-17.433781,0 -33.180422,-7.186047q-17.996161,37.127909 -51.176583,59.883724q-33.180422,22.156978 -73.671784,22.156978t-73.671784,-22.156978q-33.180422,-22.755815 -51.738963,-59.883724q-15.184261,7.186047 -32.618042,7.186047q-36.554702,0 -62.424183,-27.546513t-25.307101,-65.872096z" id="cloud-1"/>
   <path fill="#0076A3" stroke="null" transform="rotate(180 285.7508544921875,190.10046386718753) " d="m320.919888,248.064816q0,-2.590505 -1.6834,-4.20957t-3.3668,-1.619065t-3.647367,1.619065t-1.402833,4.20957q0,8.095327 -8.417,12.62871t-16.553434,4.533383q-1.963967,0 -3.647367,1.619065t-1.402833,4.20957t1.402833,4.20957t3.647367,1.619065q7.855867,0 15.431167,-2.914318t13.747767,-9.714393t5.8919,-16.190654zm24.970434,0q0,12.952523 -5.330767,23.962168t-14.028334,18.457346t-19.3591,11.333458t-21.323067,3.885757t-21.323067,-3.885757t-19.3591,-11.333458t-14.028334,-18.457346t-5.611333,-23.962168q0,-18.457346 10.661534,-32.705121q1.6834,-1.942879 4.769633,-5.828636t4.769633,-6.152449q20.2008,-27.524112 22.164767,-53.752972l35.631967,0q2.244533,26.22886 22.164767,53.752972q1.6834,1.942879 4.769633,6.152449t4.769633,5.828636q10.661534,14.247776 10.661534,32.705121zm19.920234,0q0,-28.171738 -15.9923,-48.571963q-7.014167,-8.742953 -11.7838,-15.543028t-9.2587,-17.485907t-5.330767,-19.428785q7.294733,-4.857196 7.294733,-14.895402q0,-6.476262 -3.647367,-11.333458q3.647367,-4.857196 3.647367,-11.657271q0,-9.390579 -7.014167,-14.571589q2.244533,-4.20957 2.244533,-8.41914q0,-8.41914 -5.0502,-12.952523t-12.064367,-4.533383q-3.086233,-8.095327 -9.539267,-12.62871t-13.4672,-4.857196t-13.747767,4.857196t-9.2587,12.62871q-7.294733,0 -12.344934,4.533383t-4.769633,12.952523q0,4.20957 1.963967,8.41914q-7.014167,5.181009 -7.014167,14.571589q0,6.800075 3.927933,11.657271q-3.927933,4.857196 -3.927933,11.333458q0,10.038206 7.294733,14.895402q-0.561133,9.066766 -5.330767,19.428785t-9.2587,17.485907t-11.503234,15.543028q-16.272867,20.400224 -16.272867,48.571963q0,17.80972 7.014167,33.352748t18.236834,25.581234t25.812134,15.866841t29.178934,6.152449t29.178934,-6.152449t25.531567,-15.866841t18.5174,-25.581234t6.7336,-33.352748z" id="lightbulb"/>
  </g>
 </g>
</svg>